<?xml version="1.0" encoding="UTF-8" standalone="no"?>
<!DOCTYPE svg PUBLIC "-//W3C//DTD SVG 1.1//EN"
 "http://www.w3.org/Graphics/SVG/1.1/DTD/svg11.dtd">
<!-- Generated by graphviz version 2.43.0 (0)
 -->
<!-- Title: %3 Pages: 1 -->
<svg width="379pt" height="79pt"
 viewBox="0.00 0.00 379.00 79.00" xmlns="http://www.w3.org/2000/svg" xmlns:xlink="http://www.w3.org/1999/xlink">
<g id="graph0" class="graph" transform="scale(1 1) rotate(0) translate(4 75)">
<title>%3</title>
<polygon fill="white" stroke="transparent" points="-4,4 -4,-75 375,-75 375,4 -4,4"/>
<!-- c -->
<g id="node1" class="node">
<title>c</title>
<ellipse fill="none" stroke="black" cx="27" cy="-18" rx="27" ry="18"/>
<text text-anchor="middle" x="27" y="-14.3" font-family="Times,serif" font-size="14.00">c</text>
</g>
<!-- y -->
<g id="node2" class="node">
<title>y</title>
<ellipse fill="none" stroke="black" cx="185.5" cy="-53" rx="27" ry="18"/>
<text text-anchor="middle" x="185.5" y="-49.3" font-family="Times,serif" font-size="14.00">y</text>
</g>
<!-- c&#45;&#45;y -->
<g id="edge2" class="edge">
<title>c&#45;&#45;y</title>
<path fill="none" stroke="black" d="M52.8,-23.55C82.02,-30.08 130.28,-40.87 159.56,-47.42"/>
<text text-anchor="middle" x="92.5" y="-39.8" font-family="Times,serif" font-size="14.00">0.187</text>
</g>
<!-- yhat -->
<g id="node3" class="node">
<title>yhat</title>
<ellipse fill="none" stroke="black" cx="344" cy="-18" rx="27" ry="18"/>
<text text-anchor="start" x="339.5" y="-14.3" font-family="Times,serif" font-size="14.00">ŷ</text>
</g>
<!-- c&#45;&#45;yhat -->
<g id="edge1" class="edge">
<title>c&#45;&#45;yhat</title>
<path fill="none" stroke="black" stroke-dasharray="5,2" d="M53.8,-15.76C74.61,-14.07 104.67,-11.89 131,-11 179.42,-9.36 191.58,-9.36 240,-11 266.33,-11.89 296.39,-14.07 317.2,-15.76"/>
<text text-anchor="middle" x="185.5" y="-14.8" font-family="Times,serif" font-size="14.00">0.032 (p=0.76)</text>
</g>
<!-- y&#45;&#45;yhat -->
<g id="edge3" class="edge">
<title>y&#45;&#45;yhat</title>
<path fill="none" stroke="black" d="M211.3,-47.45C240.52,-40.92 288.78,-30.13 318.06,-23.58"/>
<text text-anchor="middle" x="278.5" y="-39.8" font-family="Times,serif" font-size="14.00">0.211</text>
</g>
</g>
</svg>
