<?xml version="1.0" encoding="UTF-8" standalone="no"?>
<!DOCTYPE svg PUBLIC "-//W3C//DTD SVG 1.1//EN"
 "http://www.w3.org/Graphics/SVG/1.1/DTD/svg11.dtd">
<!-- Generated by graphviz version 2.43.0 (0)
 -->
<!-- Title: %3 Pages: 1 -->
<svg width="447pt" height="79pt"
 viewBox="0.00 0.00 447.28 79.00" xmlns="http://www.w3.org/2000/svg" xmlns:xlink="http://www.w3.org/1999/xlink">
<g id="graph0" class="graph" transform="scale(1 1) rotate(0) translate(4 75)">
<title>%3</title>
<polygon fill="white" stroke="transparent" points="-4,4 -4,-75 443.28,-75 443.28,4 -4,4"/>
<!-- c -->
<g id="node1" class="node">
<title>c</title>
<ellipse fill="none" stroke="black" cx="27.3" cy="-18" rx="27.1" ry="18"/>
<text text-anchor="middle" x="27.3" y="-14.3" font-family="Times,serif" font-size="14.00">age</text>
</g>
<!-- y -->
<g id="node2" class="node">
<title>y</title>
<ellipse fill="none" stroke="black" cx="189.1" cy="-53" rx="27" ry="18"/>
<text text-anchor="middle" x="189.1" y="-49.3" font-family="Times,serif" font-size="14.00">IQ</text>
</g>
<!-- c&#45;&#45;y -->
<g id="edge2" class="edge">
<title>c&#45;&#45;y</title>
<path fill="none" stroke="black" d="M53.62,-23.55C83.63,-30.12 133.31,-41 163.16,-47.54"/>
<text text-anchor="middle" x="93.1" y="-39.8" font-family="Times,serif" font-size="14.00">0.187</text>
</g>
<!-- yhat -->
<g id="node3" class="node">
<title>yhat</title>
<ellipse fill="none" stroke="black" cx="381.44" cy="-18" rx="57.69" ry="18"/>
<text text-anchor="middle" x="381.44" y="-14.3" font-family="Times,serif" font-size="14.00">prediction</text>
</g>
<!-- c&#45;&#45;yhat -->
<g id="edge1" class="edge">
<title>c&#45;&#45;yhat</title>
<path fill="none" stroke="black" stroke-dasharray="5,2" d="M54.6,-15.73C75.46,-14.04 105.37,-11.89 131.6,-11 182.68,-9.27 195.5,-9.66 246.6,-11 272.18,-11.67 300.49,-13.06 324.46,-14.42"/>
<text text-anchor="middle" x="189.1" y="-14.8" font-family="Times,serif" font-size="14.00">0.068 (p=0.03*)</text>
</g>
<!-- y&#45;&#45;yhat -->
<g id="edge3" class="edge">
<title>y&#45;&#45;yhat</title>
<path fill="none" stroke="black" d="M215.37,-48.35C244.8,-42.94 294.1,-33.88 331.17,-27.06"/>
<text text-anchor="middle" x="285.1" y="-41.8" font-family="Times,serif" font-size="14.00">0.238</text>
</g>
</g>
</svg>
