<?xml version="1.0" encoding="UTF-8" standalone="no"?>
<!DOCTYPE svg PUBLIC "-//W3C//DTD SVG 1.1//EN"
 "http://www.w3.org/Graphics/SVG/1.1/DTD/svg11.dtd">
<!-- Generated by graphviz version 2.43.0 (0)
 -->
<!-- Title: %3 Pages: 1 -->
<svg width="438pt" height="79pt"
 viewBox="0.00 0.00 438.28 79.00" xmlns="http://www.w3.org/2000/svg" xmlns:xlink="http://www.w3.org/1999/xlink">
<g id="graph0" class="graph" transform="scale(1 1) rotate(0) translate(4 75)">
<title>%3</title>
<polygon fill="white" stroke="transparent" points="-4,4 -4,-75 434.28,-75 434.28,4 -4,4"/>
<!-- c -->
<g id="node1" class="node">
<title>c</title>
<ellipse fill="none" stroke="black" cx="27.3" cy="-18" rx="27.1" ry="18"/>
<text text-anchor="middle" x="27.3" y="-14.3" font-family="Times,serif" font-size="14.00">age</text>
</g>
<!-- y -->
<g id="node2" class="node">
<title>y</title>
<ellipse fill="none" stroke="black" cx="184.6" cy="-53" rx="27" ry="18"/>
<text text-anchor="middle" x="184.6" y="-49.3" font-family="Times,serif" font-size="14.00">IQ</text>
</g>
<!-- c&#45;&#45;y -->
<g id="edge2" class="edge">
<title>c&#45;&#45;y</title>
<path fill="none" stroke="black" d="M53.25,-23.62C82.23,-30.15 129.75,-40.87 158.71,-47.39"/>
<text text-anchor="middle" x="93.1" y="-39.8" font-family="Times,serif" font-size="14.00">0.094</text>
</g>
<!-- yhat -->
<g id="node3" class="node">
<title>yhat</title>
<ellipse fill="none" stroke="black" cx="372.44" cy="-18" rx="57.69" ry="18"/>
<text text-anchor="middle" x="372.44" y="-14.3" font-family="Times,serif" font-size="14.00">prediction</text>
</g>
<!-- c&#45;&#45;yhat -->
<g id="edge1" class="edge">
<title>c&#45;&#45;yhat</title>
<path fill="none" stroke="black" stroke-dasharray="5,2" d="M54.6,-15.73C75.46,-14.04 105.37,-11.89 131.6,-11 178.68,-9.41 190.5,-9.77 237.6,-11 263.18,-11.67 291.49,-13.06 315.46,-14.42"/>
<text text-anchor="middle" x="184.6" y="-14.8" font-family="Times,serif" font-size="14.00">0.08 (p=0.02*)</text>
</g>
<!-- y&#45;&#45;yhat -->
<g id="edge3" class="edge">
<title>y&#45;&#45;yhat</title>
<path fill="none" stroke="black" d="M210.66,-48.28C239.19,-42.91 286.5,-34 322.43,-27.23"/>
<text text-anchor="middle" x="276.1" y="-42.8" font-family="Times,serif" font-size="14.00">0.391</text>
</g>
</g>
</svg>
